<svg width="264" height="60" viewBox="0 0 264 60" fill="none" xmlns="http://www.w3.org/2000/svg">
<path d="M101.177 37.56C101.63 37.56 101.857 38.1733 101.857 39.4C101.857 40.0667 101.577 40.88 101.017 41.84C100.457 42.7733 99.7234 43.64 98.8167 44.44C97.9367 45.2133 96.95 45.8533 95.8567 46.36C94.7634 46.8667 93.6034 47.12 92.3767 47.12C91.1767 47.12 90.23 46.7333 89.5367 45.96C88.87 45.16 88.5367 44.28 88.5367 43.32C88.5367 42.3333 88.6967 41.2267 89.0167 40C89.3367 38.7733 89.6834 37.4933 90.0567 36.16C91.07 32.6133 91.59 30.12 91.6167 28.68C91.6167 28.0667 91.5367 27.6 91.3767 27.28C91.2167 26.9333 90.91 26.76 90.4567 26.76C89.6567 26.76 88.8034 27.24 87.8967 28.2C86.99 29.16 86.1367 30.3867 85.3367 31.88C83.4967 35.2933 82.5234 38.6267 82.4167 41.88C82.47 42.2533 82.5234 42.6267 82.5767 43C82.63 43.3733 82.6567 43.7733 82.6567 44.2C82.6567 45.0533 82.23 45.84 81.3767 46.56C80.55 47.2533 79.6167 47.6 78.5767 47.6C77.9634 47.6 77.51 47.3067 77.2167 46.72C76.9234 46.1067 76.7767 45.36 76.7767 44.48C76.7767 43.6 76.9767 42.4 77.3767 40.88C77.7767 39.36 78.2167 37.7467 78.6967 36.04C79.9767 31.5333 80.63 28.1733 80.6567 25.96C80.6567 24.84 80.51 23.96 80.2167 23.32C79.95 22.68 79.4167 22.36 78.6167 22.36C77.1767 22.36 75.75 23.3867 74.3367 25.44C72.9234 27.4933 71.6567 30.68 70.5367 35C70.2434 36.12 70.0167 37.0933 69.8567 37.92L69.8167 38.68C70.3234 41.1333 70.5767 42.7333 70.5767 43.48C70.5767 45.0267 70.03 46.0667 68.9367 46.6C68.43 46.84 67.9367 47.0667 67.4567 47.28C67.0034 47.4933 66.51 47.6 65.9767 47.6C64.6434 47.6 63.9767 46.3333 63.9767 43.8C63.9767 41.24 64.6834 36.2533 66.0967 28.84C66.6034 26.1733 66.8567 24.68 66.8567 24.36C66.8567 22.2 66.31 21.12 65.2167 21.12C64.8434 21.12 64.4967 21.2267 64.1767 21.44C63.8834 21.6533 63.5767 21.88 63.2567 22.12C62.9634 22.36 62.6567 22.5867 62.3367 22.8C62.0167 23.0133 61.6434 23.12 61.2167 23.12C60.8167 23.12 60.6167 22.76 60.6167 22.04C60.6167 20.5733 61.2967 19.3733 62.6567 18.44C63.9634 17.48 65.55 17 67.4167 17C69.8167 17 71.23 18.12 71.6567 20.36C71.7634 21.0267 71.8434 21.7333 71.8967 22.48C73.87 18.7733 76.3634 16.92 79.3767 16.92C82.6567 16.92 84.5367 18.4933 85.0167 21.64C85.1767 22.5467 85.2434 23.52 85.2167 24.56V24.88C86.95 22.48 89.0034 21.28 91.3767 21.28C94.7367 21.28 96.4167 23.3067 96.4167 27.36C96.4167 29.12 96.1367 31.1867 95.5767 33.56C95.0434 35.9067 94.6434 37.6 94.3767 38.64C94.1367 39.6533 94.0167 40.44 94.0167 41C94.0167 42.0133 94.3634 42.52 95.0567 42.52C95.7767 42.52 97.47 41.1333 100.137 38.36C100.617 37.8267 100.963 37.56 101.177 37.56ZM109.184 42.64C111.264 42.64 113.277 41.8133 115.224 40.16C115.944 39.5467 116.53 38.9867 116.984 38.48C117.437 37.9467 117.784 37.68 118.024 37.68C118.397 37.68 118.584 38.0533 118.584 38.8C118.584 39.5467 118.384 40.3867 117.984 41.32C117.584 42.2267 116.917 43.12 115.984 44C113.69 46.16 110.544 47.24 106.544 47.24C103.37 47.24 101.21 46.0933 100.064 43.8C99.6636 43 99.4636 41.8533 99.4636 40.36C99.4636 38.8667 99.7569 37.32 100.344 35.72C100.93 34.0933 101.704 32.6933 102.664 31.52C103.65 30.3467 104.784 29.44 106.064 28.8C107.344 28.1333 108.704 27.8 110.144 27.8C111.61 27.8 112.73 28.16 113.504 28.88C114.304 29.6 114.704 30.5333 114.704 31.68C114.704 32.8267 114.41 33.7733 113.824 34.52C113.264 35.24 112.53 35.8533 111.624 36.36C110.717 36.84 109.704 37.28 108.584 37.68C107.49 38.0533 106.41 38.48 105.344 38.96V39.96C105.37 40.92 105.77 41.6 106.544 42C107.317 42.4 108.197 42.6133 109.184 42.64ZM108.504 31.36C107.117 31.36 106.157 32.9733 105.624 36.2C106.184 35.8267 106.704 35.4933 107.184 35.2C107.69 34.9067 108.13 34.6267 108.504 34.36C109.304 33.7733 109.717 33.1067 109.744 32.36C109.744 31.6933 109.33 31.36 108.504 31.36ZM141.142 37.56C141.622 37.56 141.862 38.1733 141.862 39.4C141.862 40.0667 141.582 40.88 141.022 41.84C140.462 42.7733 139.729 43.64 138.822 44.44C137.942 45.2133 136.956 45.8533 135.862 46.36C134.769 46.8667 133.702 47.12 132.662 47.12C131.196 47.12 130.236 45.92 129.782 43.52C128.182 46.0533 125.809 47.32 122.662 47.32C120.742 47.32 119.209 46.7333 118.062 45.56C116.916 44.3867 116.356 42.96 116.382 41.28C116.382 36.7467 117.889 33.1733 120.902 30.56C122.982 28.7733 125.142 27.88 127.382 27.88C128.396 27.88 129.196 27.96 129.782 28.12L130.702 28.36C131.796 23.2133 133.062 19.7733 134.502 18.04C134.982 17.4533 135.462 17.16 135.942 17.16C136.716 17.16 137.436 17.6933 138.102 18.76C138.689 19.64 138.982 20.4 138.982 21.04C138.982 21.68 138.889 22.3067 138.702 22.92C138.516 23.5333 138.276 24.1067 137.982 24.64C137.716 25.1467 137.409 25.6533 137.062 26.16C136.716 26.64 136.369 27.1333 136.022 27.64C135.249 30.52 134.676 33.7467 134.302 37.32C134.196 38.3333 134.142 39.1467 134.142 39.76C134.142 41.6 134.449 42.52 135.062 42.52C135.756 42.52 137.436 41.1333 140.102 38.36C140.582 37.8267 140.929 37.56 141.142 37.56ZM122.262 39.96C122.262 42.0133 123.022 43.04 124.542 43.04C125.449 43.04 126.356 42.6933 127.262 42C128.196 41.3067 128.916 40.1467 129.422 38.52C129.476 36.12 129.756 33.48 130.262 30.6C128.129 31.0267 126.262 32.0667 124.662 33.72C123.062 35.3733 122.262 37.4533 122.262 39.96ZM144.664 47.12C141.997 47.12 140.664 44.6267 140.664 39.64C140.664 36.92 140.997 34.4533 141.664 32.24C142.704 28.8267 143.877 27.12 145.184 27.12C145.957 27.12 146.57 27.64 147.024 28.68C147.397 29.48 147.57 30.2667 147.544 31.04C147.544 32.1067 147.224 33.9867 146.584 36.68C145.97 39.0267 145.664 40.48 145.664 41.04C145.664 41.6 145.797 41.9867 146.064 42.2C146.357 42.4133 146.69 42.52 147.064 42.52C147.464 42.52 147.957 42.2667 148.544 41.76C149.13 41.2533 149.717 40.7067 150.304 40.12C150.89 39.5067 151.424 38.9467 151.904 38.44C152.41 37.9333 152.757 37.68 152.944 37.68C153.317 37.68 153.504 38.1333 153.504 39.04C153.504 40.9067 152.557 42.7333 150.664 44.52C148.797 46.28 146.797 47.1467 144.664 47.12ZM146.304 23.88C145.584 22.8133 145.224 21.6667 145.224 20.44C145.224 19.2133 145.41 18.2 145.784 17.4C146.184 16.5733 146.557 15.9733 146.904 15.6C147.25 15.2 147.65 15 148.104 15C148.85 15 149.53 15.56 150.144 16.68C150.757 17.7733 151.064 18.6933 151.064 19.44C151.064 20.8267 150.57 21.92 149.584 22.72C148.624 23.4933 147.53 23.88 146.304 23.88ZM159.464 45.24C159.464 46.8133 157.931 47.6 154.864 47.6C154.198 47.6 153.798 47.2667 153.664 46.6C153.558 45.9067 153.504 44.9467 153.504 43.72C153.504 41.1333 154.024 37.9333 155.064 34.12C156.798 27.8267 158.651 24.12 160.624 23C160.891 22.84 161.184 22.76 161.504 22.76C161.824 22.76 161.984 23.28 161.984 24.32C161.984 25.36 161.931 26.28 161.824 27.08C161.611 28.68 161.224 30.7467 160.664 33.28C160.131 35.8133 159.864 37.3067 159.864 37.76L159.464 45.24ZM162.184 34.48C162.184 34.1333 162.371 33.9067 162.744 33.8C163.144 33.6933 163.638 33.6 164.224 33.52C164.811 33.4133 165.451 33.2667 166.144 33.08C166.838 32.8933 167.478 32.5467 168.064 32.04C169.424 30.8667 170.104 28.9067 170.104 26.16C170.104 24.4 169.504 23.0533 168.304 22.12C167.131 21.1867 165.424 20.72 163.184 20.72C160.971 20.72 158.891 21.1867 156.944 22.12C156.224 22.4667 155.571 22.7867 154.984 23.08C154.424 23.3733 153.904 23.52 153.424 23.52C152.944 23.52 152.704 23.3733 152.704 23.08C152.704 22.6267 153.144 21.88 154.024 20.84C154.904 19.88 156.291 18.9867 158.184 18.16C160.104 17.3333 162.118 16.92 164.224 16.92C168.198 16.8933 171.291 17.8267 173.504 19.72C175.424 21.3733 176.384 23.52 176.384 26.16C176.384 28.7733 175.438 31.12 173.544 33.2C171.651 35.2533 169.278 36.28 166.424 36.28C163.598 36.28 162.184 35.68 162.184 34.48ZM184.916 47.12C181.103 47.1467 178.503 45.72 177.116 42.84C176.636 41.8267 176.396 40.56 176.396 39.04C176.396 37.4933 176.53 35.8533 176.796 34.12C177.33 30.6533 178.356 27.4533 179.876 24.52C180.65 23.0267 181.516 21.7467 182.476 20.68C184.583 18.3333 186.93 17.1733 189.516 17.2C190.663 17.2 191.556 17.52 192.196 18.16C192.863 18.7733 193.196 19.6667 193.196 20.84C193.196 22.0133 192.85 23.2 192.156 24.4C191.463 25.5733 190.57 26.8 189.476 28.08C188.41 29.3333 187.223 30.6533 185.916 32.04C184.61 33.4267 183.33 34.9333 182.076 36.56V38.16C182.076 39.6533 182.396 40.7467 183.036 41.44C183.676 42.1333 184.423 42.48 185.276 42.48C187.57 42.48 189.596 41.3467 191.356 39.08C192.076 38.1467 192.623 37.68 192.996 37.68C193.37 37.68 193.556 38.1333 193.556 39.04C193.556 39.9467 193.303 40.88 192.796 41.84C192.316 42.7733 191.676 43.64 190.876 44.44C190.076 45.2133 189.156 45.8533 188.116 46.36C187.076 46.8667 186.01 47.12 184.916 47.12ZM187.076 25.64C187.636 24.9467 188.076 24.32 188.396 23.76C188.716 23.2 188.876 22.6267 188.876 22.04C188.876 21.4267 188.663 21.12 188.236 21.12C187.303 21.12 186.263 22.08 185.116 24C183.996 25.92 183.156 28.44 182.596 31.56C183.503 30.1733 184.33 29.0133 185.076 28.08C185.85 27.1467 186.516 26.3333 187.076 25.64ZM215.752 37.56C216.232 37.56 216.472 38.1733 216.472 39.4C216.472 40.0667 216.192 40.88 215.632 41.84C215.072 42.7733 214.338 43.64 213.432 44.44C212.552 45.2133 211.565 45.8533 210.472 46.36C209.378 46.8667 208.312 47.12 207.272 47.12C205.858 47.12 204.912 45.88 204.432 43.4C203.738 44.5467 202.832 45.4933 201.712 46.24C200.592 46.96 199.085 47.32 197.192 47.32C195.325 47.32 193.818 46.7333 192.672 45.56C191.525 44.3867 190.965 42.96 190.992 41.28C190.992 36.7467 192.498 33.1733 195.512 30.56C196.792 29.4667 197.978 28.7467 199.072 28.4C200.192 28.0533 201.365 27.88 202.592 27.88C203.818 27.88 204.818 28.0933 205.592 28.52C205.965 27.7467 206.392 27.36 206.872 27.36C207.805 27.36 208.685 27.7733 209.512 28.6C210.365 29.4 210.792 30.16 210.792 30.88C210.418 31.76 209.872 32.8133 209.152 34.04C208.938 35.2667 208.832 36.9867 208.832 39.2C208.832 41.4133 209.112 42.52 209.672 42.52C210.365 42.52 212.045 41.1333 214.712 38.36C215.192 37.8267 215.538 37.56 215.752 37.56ZM196.872 39.96C196.872 42.0133 197.632 43.04 199.152 43.04C200.778 43.0133 202.125 42.1467 203.192 40.44C203.565 39.8533 203.872 39.1333 204.112 38.28C204.112 35.2933 204.378 32.7333 204.912 30.6C202.752 31.0267 200.872 32.0667 199.272 33.72C197.672 35.3733 196.872 37.4533 196.872 39.96ZM219.793 27.04C220.753 27.04 221.66 27.96 222.513 29.8C223.766 28.4933 225.313 27.84 227.153 27.84C229.02 27.84 230.42 28.2533 231.353 29.08C232.286 29.88 232.753 31.0267 232.753 32.52C232.753 33.9867 232.553 35.48 232.153 37C231.78 38.52 231.5 39.6133 231.313 40.28C231.153 40.92 231.073 41.4533 231.073 41.88C231.073 42.3067 231.22 42.52 231.513 42.52C231.913 42.52 232.406 42.2667 232.993 41.76C233.58 41.2533 234.166 40.7067 234.753 40.12C235.34 39.5067 235.873 38.9467 236.353 38.44C236.86 37.9333 237.206 37.68 237.393 37.68C237.766 37.68 237.953 38.1333 237.953 39.04C237.953 40.9067 237.033 42.7067 235.193 44.44C232.1 46.2533 230.126 47.16 229.273 47.16C229.193 47.16 229.14 47.1467 229.113 47.12C226.98 47.12 225.913 45.4133 225.913 42C225.913 40.5333 226.046 39.1867 226.313 37.96C226.606 36.7333 226.82 35.84 226.953 35.28C227.086 34.72 227.153 34.1467 227.153 33.56C227.153 32.6 226.593 32.12 225.473 32.12C224.38 32.12 223.326 32.9467 222.313 34.6C221.326 36.2267 220.66 37.92 220.313 39.68V39.96C220.313 40.8667 220.446 41.8 220.713 42.76C221.006 43.72 221.153 44.3867 221.153 44.76C221.153 45.6667 220.02 46.56 217.753 47.44C217.406 47.5733 217.1 47.64 216.833 47.64C216.166 47.64 215.7 47.2933 215.433 46.6C215.193 45.9067 215.073 44.8267 215.073 43.36C215.073 39.5733 215.22 36.84 215.513 35.16C215.913 32.6533 216.82 30.32 218.233 28.16C218.713 27.4133 219.233 27.04 219.793 27.04ZM237.717 44.84C237.424 44.12 237.211 43.2933 237.077 42.36C236.944 41.4 236.877 40.0667 236.877 38.36C236.877 36.6533 237.197 34.3467 237.837 31.44H236.037C235.717 31.44 235.557 31.3067 235.557 31.04C235.557 30.4 235.611 29.88 235.717 29.48C235.851 29.0533 236.144 28.5733 236.597 28.04H237.557C237.931 28.04 238.331 28.0267 238.757 28C240.037 23.8933 241.344 21.84 242.677 21.84C243.744 21.8667 244.491 22.5467 244.917 23.88C245.024 24.2533 245.144 24.6533 245.277 25.08L243.637 27.96C245.504 28.0133 246.677 28.04 247.157 28.04C247.664 28.04 247.931 28.0933 247.957 28.2C248.011 28.28 248.037 28.4133 248.037 28.6C248.037 29.08 247.917 29.68 247.677 30.4C247.464 31.12 247.211 31.4667 246.917 31.44L242.917 31.24C242.357 34.4933 242.077 37.1867 242.077 39.32C242.077 41.4533 242.384 42.52 242.997 42.52C243.504 42.52 244.424 42.1067 245.757 41.28C247.091 40.4267 248.051 39.6133 248.637 38.84C249.224 38.0667 249.704 37.68 250.077 37.68C250.451 37.68 250.637 38.1333 250.637 39.04C250.637 39.9467 250.317 40.88 249.677 41.84C249.037 42.7733 248.224 43.64 247.237 44.44C246.277 45.2133 245.197 45.8533 243.997 46.36C242.824 46.8667 241.797 47.12 240.917 47.12C240.037 47.12 239.357 46.92 238.877 46.52C238.424 46.0933 238.037 45.5333 237.717 44.84ZM257.773 27.64C259.559 27.6133 260.893 27.9467 261.773 28.64C262.653 29.3067 263.093 30.28 263.093 31.56C263.093 32.8133 262.706 33.8933 261.933 34.8C261.186 35.68 260.266 36.3067 259.173 36.68C259.946 37.48 260.639 38.2933 261.253 39.12C261.893 39.9467 262.213 40.8133 262.213 41.72C262.213 43.5067 261.506 44.8933 260.093 45.88C258.679 46.84 256.706 47.32 254.173 47.32C251.666 47.32 249.786 46.8267 248.533 45.84C247.279 44.8267 246.653 43.6933 246.653 42.44C246.653 41.16 246.959 40 247.573 38.96C248.213 37.92 248.893 37.4 249.613 37.4C250.039 37.4 250.346 37.56 250.533 37.88C250.719 38.1733 251.066 39.0533 251.573 40.52C251.759 41.0533 252.066 41.56 252.493 42.04C253.479 43.1333 255.039 43.68 257.173 43.68C256.853 42.6667 256.333 41.8 255.613 41.08C254.919 40.3333 254.226 39.6133 253.533 38.92C252.839 38.2267 252.226 37.4933 251.693 36.72C251.159 35.92 250.893 34.9867 250.893 33.92C250.893 32 251.613 30.44 253.053 29.24C254.413 28.1733 255.986 27.64 257.773 27.64ZM257.613 35.04C258.679 33.8933 259.213 32.9733 259.213 32.28C259.213 31.96 259.093 31.68 258.853 31.44C258.639 31.1733 258.319 31.04 257.893 31.04C257.466 31.04 257.053 31.0933 256.653 31.2C256.279 31.3067 255.973 31.3867 255.733 31.44C255.733 32.4533 256.359 33.6533 257.613 35.04Z" fill="white"/>
<path d="M1.13706 34.4944C1.72702 38.0473 6.61754 47.7939 8.98906 52.2231L16.9357 48.2637C20.3184 46.5783 29.7091 39.2533 31.5174 32.361C33.3257 25.4687 32.5914 19.0375 30.4017 13.6197C28.65 9.28556 24.2297 3.21578 22.2385 0.722656C21.6003 1.44617 20.0022 3.23146 18.7153 4.58447C17.1066 6.27572 11.0982 11.8556 9.90423 13.0091C8.71023 14.1625 4.79314 17.4175 2.8123 21.6626C0.831456 25.9077 0.399611 30.0533 1.13706 34.4944Z" fill="#00AA95"/>
<path d="M9.80308 32.8868C8.74667 36.3299 8.77734 47.2347 8.92473 52.2566H17.8031C21.5825 52.2566 33.2543 49.8882 37.9465 44.5257C42.6387 39.1631 44.8495 33.0794 45.3057 27.2537C45.6707 22.5932 44.4212 15.1892 43.7508 12.0697C42.857 12.4327 40.6304 13.3179 38.8751 13.955C36.681 14.7514 28.8148 17.0662 27.2317 17.5661C25.6487 18.066 20.6911 19.2325 17.025 22.1487C13.3589 25.0649 11.1236 28.5829 9.80308 32.8868Z" fill="#A5E887"/>
<path d="M8.92188 52.1532C14.2871 48.3874 26.7206 38.3433 34.5024 27.5766C39.5165 20.6394 42.2167 15.4742 43.5409 12.1547C43.6172 12.1239 43.6875 12.0955 43.751 12.0697C44.4214 15.1892 45.6709 22.5932 45.3059 27.2537C44.8497 33.0794 42.6389 39.1631 37.9466 44.5257C33.2544 49.8882 21.5826 52.2566 17.8033 52.2566H8.92487C8.92387 52.2224 8.92287 52.188 8.92188 52.1532Z" fill="#00CC76"/>
</svg>
